<?xml version="1.0" encoding="UTF-8"?><!DOCTYPE svg PUBLIC "-//W3C//DTD SVG 1.0//EN" "http://www.w3.org/TR/2001/REC-SVG-20010904/DTD/svg10.dtd" []><svg xmlns="http://www.w3.org/2000/svg" xmlns:xlink="http://www.w3.org/1999/xlink" height="11.8" preserveAspectRatio="xMidYMid meet" version="1.0" viewBox="21.7 211.0 456.6 11.8" width="456.6" zoomAndPan="magnify"><g id="change1_1"><path d="M102.24,222.17c-22.99-.05-45.99-.89-68.99-.81-3.1,.01-6.19,.23-9.29,.29-.95,.02-2.3,.07-2.17-1.27,.12-1.29,1.46-1.1,2.39-.91,2.27,.47,4.55,.3,6.83,.34,11.42,.2,22.84,.16,34.25,.56,40.37,1.42,80.75,.78,121.13,.97,15.99,.07,31.98,.12,47.97-.27,10.28-.25,20.55-.09,30.83-.28,17.69-.34,35.38-.53,53.07-1.03,8.21-.23,16.43-.65,24.64-.94,9.26-.32,18.51-.87,27.75-1.47,5.26-.34,10.49-1.14,15.78-.88,0,.12,0,.23,0,.35-9.08,.44-18.14,1.18-27.22,1.64-10.23,.52-20.46,1.03-30.7,1.47-12.46,.53-24.93,.56-37.38,1.04-11.66,.45-23.33-.13-34.97,.53-8.32,.47-16.64,.14-24.95,.33-42.99,.99-85.99,.45-128.98,.35Zm313.57-7.23c10.58-.32,21.16-.68,31.74-.96,9.37-.25,18.74-.38,28.11-.61,.97-.02,2.65,.21,2.56-1.06-.1-1.3-1.74-.74-2.71-.69-11.37,.59-22.73,1.28-34.11,1.83-9.01,.44-18.03,.73-27.05,1.09,0,.12,0,.23,0,.35,.49,.02,.97,.08,1.46,.06Zm-1.46-.06c-.16-.08-.21-.15-.16-.23,.05-.08,.11-.12,.16-.12-2.98,.1-5.93,.62-8.93,.42-1.13-.08-2.27-.03-3.31,.54,0,.12,0,.23,0,.35,4.03-.92,8.23,.19,12.24-.96Zm-27.75,1.82c-.05,.08-.11,.12-.16,.12,2.45-.16,4.9-.32,7.35-.49,2.77-.16,5.55-.33,8.32-.49-.16-.08-.21-.15-.16-.23,.05-.08,.11-.12,.16-.12-2.78,.02-5.6-.45-8.32,.51-2.46,0-4.95-.49-7.35,.47,.16,.08,.21,.15,.16,.23Z" fill="#211815"/></g></svg>